<svg width="39" height="7" viewBox="0 0 39 7" fill="none" xmlns="http://www.w3.org/2000/svg">
<path d="M0.208069 0.839117C0.208069 0.706625 0.292027 0.577813 0.459943 0.452682C0.627858 0.32019 0.85418 0.21346 1.13891 0.132492C1.42363 0.0515253 1.73391 0.0110418 2.06974 0.0110418C2.53699 0.0110418 2.93852 0.0920088 3.27435 0.253943C3.61019 0.408518 3.86936 0.629338 4.05188 0.916404C4.23439 1.20347 4.32565 1.54206 4.32565 1.93218C4.32565 2.33701 4.21249 2.73449 3.98617 3.12461C3.76715 3.51472 3.38751 3.96004 2.84726 4.46057L1.06225 6.12776H4.3147C4.3439 6.1572 4.36946 6.20505 4.39136 6.27129C4.41326 6.33018 4.42421 6.4001 4.42421 6.48107C4.42421 6.59884 4.39136 6.69085 4.32565 6.7571C4.26725 6.82334 4.18694 6.85647 4.08473 6.85647H0.21902C0.146014 6.80494 0.0912585 6.74238 0.0547551 6.66877C0.0182517 6.5878 0 6.50315 0 6.41483C0 6.29706 0.0219021 6.19401 0.0657062 6.10568C0.10951 6.00999 0.175216 5.92166 0.262824 5.84069L2.23401 3.9306C2.68665 3.50368 2.99693 3.14669 3.16484 2.85962C3.33276 2.56519 3.41672 2.25973 3.41672 1.94322C3.41672 1.59727 3.29991 1.31388 3.06629 1.09306C2.83266 0.87224 2.47858 0.76183 2.00404 0.76183C1.68281 0.76183 1.39443 0.817035 1.13891 0.927445C0.890683 1.03786 0.682614 1.15563 0.514698 1.28076C0.43439 1.24395 0.361384 1.18875 0.295678 1.11514C0.237272 1.04154 0.208069 0.949527 0.208069 0.839117Z" fill="black"/>
<path d="M7.5213 0C8.21486 0 8.77336 0.154574 9.1968 0.463722C9.62754 0.76551 9.84291 1.22187 9.84291 1.83281C9.84291 2.12723 9.78086 2.38118 9.65674 2.59464C9.53993 2.80074 9.39757 2.96267 9.22966 3.08044C9.06904 3.19821 8.92303 3.2755 8.79161 3.3123C8.98873 3.37119 9.1822 3.47424 9.37202 3.62145C9.56184 3.7613 9.7188 3.94532 9.84291 4.1735C9.97432 4.39432 10.04 4.66299 10.04 4.9795C10.04 5.42114 9.93417 5.78917 9.72245 6.0836C9.51073 6.37802 9.2187 6.60252 8.84637 6.7571C8.47403 6.90431 8.04329 6.97792 7.55415 6.97792C7.15261 6.97792 6.79488 6.93743 6.48095 6.85647C6.17432 6.76814 5.9334 6.65773 5.75818 6.52524C5.58297 6.39274 5.49536 6.25289 5.49536 6.10568C5.49536 6.00263 5.52091 5.9143 5.57201 5.84069C5.63042 5.76709 5.70343 5.70452 5.79104 5.653C5.98085 5.80021 6.21082 5.9327 6.48095 6.05047C6.75838 6.16824 7.11611 6.22713 7.55415 6.22713C8.03599 6.22713 8.42658 6.12408 8.72591 5.91798C9.02524 5.70452 9.1749 5.38433 9.1749 4.95741C9.1749 4.58202 9.03619 4.28023 8.75876 4.05205C8.48134 3.82387 8.0798 3.70978 7.55415 3.70978H6.64521C6.61601 3.67298 6.59046 3.62145 6.56856 3.55521C6.54666 3.4816 6.5357 3.40799 6.5357 3.33438C6.5357 3.25342 6.54666 3.17981 6.56856 3.11356C6.59046 3.04732 6.61601 2.99579 6.64521 2.95899H7.47749C8.01774 2.95899 8.40103 2.85962 8.62735 2.66088C8.86097 2.45478 8.97778 2.18612 8.97778 1.85489C8.97778 1.49422 8.84637 1.22187 8.58355 1.03786C8.32072 0.846478 7.96299 0.750789 7.51034 0.750789C7.15991 0.750789 6.84963 0.805994 6.57951 0.916404C6.31668 1.01945 6.09766 1.13354 5.92245 1.25868C5.84944 1.22187 5.78373 1.16299 5.72533 1.08202C5.66692 1.00105 5.63772 0.912724 5.63772 0.817035C5.63772 0.684543 5.72168 0.555731 5.88959 0.4306C6.05751 0.305468 6.28383 0.202418 6.56856 0.121451C6.85328 0.0404836 7.17086 0 7.5213 0Z" fill="black"/>
<path d="M11.2296 2.52839C11.2296 2.35174 11.2807 2.20452 11.3829 2.08675C11.4924 1.96898 11.6384 1.91009 11.8209 1.91009C12.0108 1.91009 12.1568 1.96898 12.259 2.08675C12.3685 2.20452 12.4232 2.35174 12.4232 2.52839C12.4232 2.70505 12.3685 2.85226 12.259 2.97003C12.1568 3.08044 12.0108 3.13565 11.8209 3.13565C11.6384 3.13565 11.4924 3.08044 11.3829 2.97003C11.2807 2.85226 11.2296 2.70505 11.2296 2.52839ZM11.2296 6.39274C11.2296 6.21609 11.2807 6.06888 11.3829 5.9511C11.4851 5.83333 11.6311 5.77445 11.8209 5.77445C12.0108 5.77445 12.1568 5.83333 12.259 5.9511C12.3685 6.06888 12.4232 6.21609 12.4232 6.39274C12.4232 6.56204 12.3685 6.70557 12.259 6.82334C12.1568 6.94111 12.0108 7 11.8209 7C11.6311 7 11.4851 6.94111 11.3829 6.82334C11.2807 6.70557 11.2296 6.56204 11.2296 6.39274Z" fill="black"/>
<path d="M15.1003 0.143533L14.8046 0.794953L14.6184 2.8817C14.7425 2.81546 14.9141 2.75289 15.1331 2.69401C15.3594 2.62776 15.5967 2.59464 15.8449 2.59464C16.283 2.59464 16.6772 2.67929 17.0276 2.84858C17.3781 3.01052 17.6555 3.25342 17.8599 3.57729C18.0716 3.8938 18.1775 4.28759 18.1775 4.75867C18.1775 5.18559 18.0789 5.56835 17.8818 5.90694C17.692 6.24553 17.4109 6.5142 17.0386 6.71293C16.6736 6.90431 16.2246 7 15.6916 7C15.2755 7 14.9104 6.95216 14.5965 6.85647C14.2826 6.76078 14.038 6.64301 13.8628 6.50315C13.6876 6.3633 13.6 6.22713 13.6 6.09464C13.6 5.97687 13.6365 5.87382 13.7095 5.78549C13.7898 5.69716 13.8701 5.63828 13.9504 5.60883C14.111 5.74869 14.3373 5.89222 14.6294 6.03943C14.9214 6.18665 15.2755 6.26025 15.6916 6.26025C16.1954 6.26025 16.5859 6.1204 16.8634 5.84069C17.1408 5.55363 17.2795 5.19295 17.2795 4.75867C17.2795 4.30967 17.1371 3.96004 16.8524 3.70978C16.5677 3.45952 16.1954 3.33438 15.7354 3.33438C15.4799 3.33438 15.2463 3.37487 15.0346 3.45584C14.8228 3.5368 14.6257 3.62881 14.4432 3.73186C14.2461 3.71714 14.0855 3.65825 13.9614 3.55521C13.8445 3.4448 13.7861 3.30494 13.7861 3.13565C13.7861 3.09148 13.7861 3.03628 13.7861 2.97003C13.7934 2.89642 13.8007 2.8265 13.808 2.76025L13.9942 0.65142C14.0088 0.496846 14.0563 0.375395 14.1366 0.287066C14.2169 0.191378 14.3337 0.143533 14.487 0.143533H15.1003ZM14.6403 0.894322V0.143533H17.838C17.8599 0.172976 17.8818 0.22082 17.9037 0.287066C17.9256 0.353313 17.9366 0.423239 17.9366 0.496846C17.9366 0.614617 17.9074 0.710306 17.849 0.783912C17.7906 0.857519 17.7066 0.894322 17.5971 0.894322H14.6403Z" fill="black"/>
<path d="M19.6033 6.31546C19.6033 6.22713 19.6253 6.14248 19.6691 6.06151C19.7202 5.98055 19.7822 5.92166 19.8552 5.88486C19.9939 5.96583 20.1728 6.04679 20.3918 6.12776C20.6181 6.20137 20.8846 6.23817 21.1912 6.23817C21.5709 6.23817 21.9177 6.1572 22.2316 5.99527C22.5455 5.83333 22.7974 5.56835 22.9872 5.20032C23.177 4.82492 23.2719 4.33176 23.2719 3.72082C23.2062 3.79443 23.0967 3.88644 22.9434 3.99685C22.7974 4.0999 22.6112 4.1919 22.3849 4.27287C22.1586 4.35384 21.8958 4.39432 21.5964 4.39432C21.1876 4.39432 20.8043 4.3244 20.4466 4.18454C20.0888 4.03733 19.8005 3.80547 19.5814 3.48896C19.3697 3.17245 19.2639 2.75657 19.2639 2.24132C19.2639 1.7776 19.3661 1.38013 19.5705 1.0489C19.7749 0.710305 20.0523 0.452682 20.4028 0.276026C20.7532 0.0993697 21.1438 0.0110418 21.5745 0.0110418C22.0783 0.0110418 22.5236 0.128812 22.9106 0.364354C23.2975 0.592534 23.6005 0.949527 23.8195 1.43533C24.0458 1.91377 24.159 2.53207 24.159 3.29022C24.159 4.18822 24.0349 4.90957 23.7866 5.45426C23.5384 5.99895 23.1916 6.39274 22.7463 6.63565C22.3083 6.87855 21.7936 7 21.2022 7C20.7642 7 20.3882 6.94111 20.0742 6.82334C19.7603 6.70557 19.6033 6.53628 19.6033 6.31546ZM21.7169 3.65457C22.0892 3.65457 22.4178 3.56257 22.7025 3.37855C22.9945 3.18717 23.188 2.97739 23.2829 2.74921L23.2719 2.87066C23.2719 2.21556 23.1223 1.70032 22.823 1.32492C22.5309 0.942166 22.1148 0.750789 21.5745 0.750789C21.173 0.750789 20.8335 0.883281 20.5561 1.14827C20.286 1.40589 20.1509 1.76288 20.1509 2.21924C20.1509 2.72713 20.3042 3.09516 20.6108 3.32334C20.9175 3.54416 21.2862 3.65457 21.7169 3.65457Z" fill="black"/>
<path d="M25.1857 2.52839C25.1857 2.35174 25.2368 2.20452 25.339 2.08675C25.4485 1.96898 25.5946 1.91009 25.7771 1.91009C25.9669 1.91009 26.1129 1.96898 26.2151 2.08675C26.3246 2.20452 26.3794 2.35174 26.3794 2.52839C26.3794 2.70505 26.3246 2.85226 26.2151 2.97003C26.1129 3.08044 25.9669 3.13565 25.7771 3.13565C25.5946 3.13565 25.4485 3.08044 25.339 2.97003C25.2368 2.85226 25.1857 2.70505 25.1857 2.52839ZM25.1857 6.39274C25.1857 6.21609 25.2368 6.06888 25.339 5.9511C25.4412 5.83333 25.5873 5.77445 25.7771 5.77445C25.9669 5.77445 26.1129 5.83333 26.2151 5.9511C26.3246 6.06888 26.3794 6.21609 26.3794 6.39274C26.3794 6.56204 26.3246 6.70557 26.2151 6.82334C26.1129 6.94111 25.9669 7 25.7771 7C25.5873 7 25.4412 6.94111 25.339 6.82334C25.2368 6.70557 25.1857 6.56204 25.1857 6.39274Z" fill="black"/>
<path d="M31.7175 3.5C31.7175 2.8449 31.6372 2.31861 31.4766 1.92114C31.3232 1.5163 31.1188 1.22187 30.8633 1.03786C30.6078 0.853838 30.3231 0.76183 30.0091 0.76183C29.7025 0.76183 29.4178 0.857518 29.1549 1.0489C28.8994 1.23291 28.695 1.52734 28.5417 1.93218C28.3884 2.33701 28.3117 2.85962 28.3117 3.5C28.3117 4.38328 28.4614 5.06414 28.7607 5.54259C29.06 6.01367 29.4762 6.24921 30.0091 6.24921C30.5494 6.24921 30.9692 6.01367 31.2685 5.54259C31.5678 5.06414 31.7175 4.38328 31.7175 3.5ZM30.0091 7C29.4981 7 29.0454 6.87487 28.6512 6.62461C28.2643 6.36698 27.9613 5.98055 27.7423 5.4653C27.5232 4.94269 27.4137 4.28759 27.4137 3.5C27.4137 2.65352 27.5378 1.97634 27.7861 1.46845C28.0343 0.960568 28.3555 0.592534 28.7498 0.364354C29.144 0.128812 29.5638 0.0110418 30.0091 0.0110418C30.4618 0.0110418 30.8852 0.128812 31.2794 0.364354C31.681 0.599895 32.0022 0.975289 32.2431 1.49054C32.4914 1.99842 32.6155 2.66824 32.6155 3.5C32.6155 4.28023 32.506 4.93165 32.2869 5.45426C32.0679 5.96951 31.7613 6.35594 31.3671 6.61356C30.9801 6.87119 30.5275 7 30.0091 7Z" fill="black"/>
<path d="M38.102 3.5C38.102 2.8449 38.0217 2.31861 37.8611 1.92114C37.7078 1.5163 37.5034 1.22187 37.2478 1.03786C36.9923 0.853838 36.7076 0.76183 36.3937 0.76183C36.087 0.76183 35.8023 0.857518 35.5395 1.0489C35.284 1.23291 35.0795 1.52734 34.9262 1.93218C34.7729 2.33701 34.6963 2.85962 34.6963 3.5C34.6963 4.38328 34.8459 5.06414 35.1452 5.54259C35.4446 6.01367 35.8607 6.24921 36.3937 6.24921C36.9339 6.24921 37.3537 6.01367 37.653 5.54259C37.9524 5.06414 38.102 4.38328 38.102 3.5ZM36.3937 7C35.8826 7 35.43 6.87487 35.0357 6.62461C34.6488 6.36698 34.3458 5.98055 34.1268 5.4653C33.9078 4.94269 33.7983 4.28759 33.7983 3.5C33.7983 2.65352 33.9224 1.97634 34.1706 1.46845C34.4188 0.960568 34.74 0.592534 35.1343 0.364354C35.5285 0.128812 35.9483 0.0110418 36.3937 0.0110418C36.8463 0.0110418 37.2697 0.128812 37.664 0.364354C38.0655 0.599895 38.3867 0.975289 38.6277 1.49054C38.8759 1.99842 39 2.66824 39 3.5C39 4.28023 38.8905 4.93165 38.6715 5.45426C38.4524 5.96951 38.1458 6.35594 37.7516 6.61356C37.3646 6.87119 36.912 7 36.3937 7Z" fill="black"/>
</svg>
