<svg width="70" height="14" viewBox="0 0 70 14" fill="none" xmlns="http://www.w3.org/2000/svg">
<path d="M9.62268 2.35043C9.62268 2.52453 9.56241 2.68524 9.44188 2.83256C9.33474 2.96649 9.20751 3.06694 9.06019 3.1339C8.72537 2.89283 8.31689 2.66515 7.83475 2.45087C7.366 2.23659 6.75663 2.12944 6.00664 2.12944C5.18969 2.12944 4.45308 2.31694 3.79684 2.69194C3.15399 3.06694 2.63837 3.62943 2.24998 4.37942C1.87498 5.11603 1.68748 6.03343 1.68748 7.13163C1.68748 8.77894 2.08927 10.0178 2.89283 10.8481C3.70979 11.6785 4.76781 12.0936 6.06691 12.0936C6.76333 12.0936 7.3727 11.9932 7.89502 11.7923C8.41733 11.5914 8.8459 11.3637 9.18072 11.1093C9.31465 11.1628 9.44188 11.2633 9.56241 11.4106C9.68295 11.5445 9.74321 11.7053 9.74321 11.8927C9.74321 12.0267 9.70304 12.1606 9.62268 12.2945C9.55572 12.4151 9.43518 12.5356 9.26108 12.6561C8.95304 12.8704 8.53117 13.0579 7.99546 13.2186C7.45975 13.3927 6.77672 13.4798 5.94637 13.4798C4.83478 13.4798 3.82363 13.2454 2.91292 12.7767C2.01561 12.2945 1.30579 11.5847 0.783475 10.6472C0.261158 9.70973 0 8.53787 0 7.13163C0 5.72539 0.267855 4.54683 0.803564 3.59595C1.35267 2.64507 2.06918 1.93525 2.9531 1.4665C3.85041 0.984366 4.82808 0.743297 5.88611 0.743297C6.62271 0.743297 7.27226 0.823653 7.83475 0.984366C8.39724 1.14508 8.83251 1.35267 9.14054 1.60713C9.46197 1.8482 9.62268 2.09596 9.62268 2.35043Z" fill="black"/>
<path d="M20.2878 9.2209H18.6807V7.3727C18.6807 6.56914 18.453 5.97316 17.9976 5.58477C17.5557 5.19638 16.9798 5.00219 16.27 5.00219C15.7477 5.00219 15.2588 5.10263 14.8035 5.30352C14.3615 5.50441 13.9865 5.74548 13.6785 6.02673L13.3771 4.72094C13.6986 4.49326 14.1204 4.26559 14.6428 4.03791C15.1785 3.79684 15.7945 3.67631 16.491 3.67631C17.6026 3.67631 18.5133 3.97764 19.2231 4.58032C19.9329 5.18299 20.2878 6.10039 20.2878 7.33252V9.2209ZM12.2722 7.91511H13.8794V13.1785C13.8124 13.2052 13.712 13.232 13.578 13.2588C13.4441 13.299 13.2968 13.3191 13.1361 13.3191C12.8548 13.3191 12.6405 13.2655 12.4932 13.1584C12.3459 13.0378 12.2722 12.8503 12.2722 12.5959V7.91511ZM18.6807 7.9352L20.2878 7.95529V13.1785C20.2208 13.2052 20.1137 13.232 19.9664 13.2588C19.8324 13.299 19.6918 13.3191 19.5445 13.3191C19.2499 13.3191 19.0289 13.2655 18.8816 13.1584C18.7476 13.0378 18.6807 12.8503 18.6807 12.5959V7.9352ZM13.8794 8.69858H12.2722V0.200892C12.3392 0.174106 12.4397 0.147321 12.5736 0.120535C12.7209 0.080357 12.8749 0.0602677 13.0356 0.0602677C13.3169 0.0602677 13.5245 0.120535 13.6584 0.24107C13.8057 0.348212 13.8794 0.529014 13.8794 0.783476V8.69858Z" fill="black"/>
<path d="M23.8793 9.60259L23.799 8.33698L29.8659 7.51332C29.8123 6.77672 29.5579 6.17405 29.1025 5.70531C28.6472 5.22317 28.0177 4.9821 27.2141 4.9821C26.3838 4.9821 25.6941 5.28343 25.145 5.88611C24.6093 6.47539 24.3414 7.32583 24.3414 8.43742V8.87938C24.4351 9.9508 24.7834 10.7678 25.386 11.3303C26.0021 11.8794 26.8391 12.1539 27.8972 12.1539C28.4597 12.1539 28.9686 12.0602 29.4239 11.8727C29.8793 11.6852 30.2409 11.4843 30.5088 11.27C30.6561 11.3637 30.7699 11.4776 30.8503 11.6115C30.944 11.732 30.9909 11.8727 30.9909 12.0334C30.9909 12.2878 30.8436 12.5289 30.5489 12.7566C30.2677 12.9709 29.886 13.145 29.4039 13.2789C28.9351 13.4128 28.4061 13.4798 27.8168 13.4798C26.7856 13.4798 25.8883 13.2923 25.1249 12.9173C24.3749 12.5423 23.7923 11.9865 23.3771 11.2499C22.9753 10.4999 22.7744 9.5892 22.7744 8.51778C22.7744 7.75439 22.8816 7.07806 23.0959 6.48878C23.3236 5.88611 23.6316 5.37718 24.02 4.96201C24.4218 4.54683 24.8972 4.2321 25.4463 4.01782C25.9954 3.79014 26.5914 3.67631 27.2342 3.67631C28.0512 3.67631 28.7677 3.85041 29.3838 4.19862C30.0132 4.54683 30.5021 5.03567 30.8503 5.66513C31.2119 6.28119 31.3927 6.99101 31.3927 7.79457C31.3927 8.08921 31.3257 8.3035 31.1918 8.43742C31.0579 8.55796 30.8704 8.63162 30.6293 8.6584L23.8793 9.60259Z" fill="black"/>
<path d="M38.0131 5.02228C37.1024 5.02228 36.3457 5.33031 35.7431 5.94637C35.1404 6.56244 34.839 7.44636 34.839 8.59814C34.839 9.73652 35.127 10.6137 35.7029 11.2298C36.2922 11.8459 37.0622 12.1539 38.0131 12.1539C38.5756 12.1539 39.0444 12.0802 39.4194 11.9329C39.7944 11.7722 40.1292 11.5914 40.4238 11.3905C40.5711 11.4709 40.6917 11.5713 40.7854 11.6919C40.8792 11.8124 40.926 11.9597 40.926 12.1338C40.926 12.5088 40.6448 12.8302 40.0823 13.0981C39.5332 13.3526 38.8435 13.4798 38.0131 13.4798C37.089 13.4798 36.2587 13.3057 35.5221 12.9575C34.7989 12.5959 34.2297 12.0535 33.8145 11.3303C33.3993 10.607 33.1917 9.69634 33.1917 8.59814C33.1917 7.51332 33.406 6.60931 33.8346 5.88611C34.2632 5.14951 34.839 4.6004 35.5623 4.2388C36.2989 3.8638 37.1024 3.67631 37.973 3.67631C38.8033 3.67631 39.4863 3.81693 40.022 4.09818C40.5711 4.37942 40.8457 4.70085 40.8457 5.06245C40.8457 5.22317 40.7988 5.36379 40.7051 5.48432C40.6113 5.60486 40.4908 5.69861 40.3435 5.76557C40.0488 5.56468 39.7207 5.39058 39.3591 5.24326C39.0109 5.09594 38.5622 5.02228 38.0131 5.02228Z" fill="black"/>
<path d="M45.7784 8.97983L44.7739 8.19635L49.3542 3.75666C49.6756 3.77006 49.9234 3.85041 50.0975 3.99773C50.285 4.13166 50.3788 4.31246 50.3788 4.54014C50.3788 4.72764 50.3185 4.89504 50.198 5.04236C50.0908 5.18968 49.9301 5.3504 49.7158 5.5245L45.7784 8.97983ZM44.7337 8.45751L45.8587 7.79457L50.9613 12.3749C50.9346 12.6695 50.8408 12.9039 50.6801 13.078C50.5328 13.2521 50.3319 13.3392 50.0774 13.3392C49.8765 13.3392 49.689 13.2856 49.5149 13.1785C49.3542 13.0713 49.1868 12.9307 49.0127 12.7566L44.7337 8.45751ZM43.3476 7.83475L44.9547 8.07582V13.1785C44.8877 13.2052 44.7873 13.232 44.6534 13.2588C44.5194 13.299 44.3721 13.3191 44.2114 13.3191C43.9302 13.3191 43.7159 13.2655 43.5685 13.1584C43.4212 13.0378 43.3476 12.8503 43.3476 12.5959V7.83475ZM44.9547 8.85929L43.3476 8.61823V0.200892C43.4145 0.174106 43.515 0.147321 43.6489 0.120535C43.7962 0.080357 43.9502 0.0602677 44.111 0.0602677C44.3922 0.0602677 44.5998 0.120535 44.7337 0.24107C44.881 0.348212 44.9547 0.529014 44.9547 0.783476V8.85929Z" fill="black"/>
<path d="M56.978 1.00446C56.978 0.723208 57.0785 0.488835 57.2794 0.301337C57.4803 0.100445 57.728 0 58.0227 0C58.3307 0 58.5785 0.100445 58.766 0.301337C58.9535 0.488835 59.0472 0.723208 59.0472 1.00446C59.0472 1.2857 58.9535 1.52677 58.766 1.72766C58.5785 1.91516 58.3307 2.00891 58.0227 2.00891C57.728 2.00891 57.4803 1.91516 57.2794 1.72766C57.0785 1.52677 56.978 1.2857 56.978 1.00446ZM57.2191 7.91511H58.8262V13.1785C58.7593 13.2052 58.6588 13.232 58.5249 13.2588C58.391 13.299 58.2436 13.3191 58.0829 13.3191C57.8017 13.3191 57.5874 13.2655 57.4401 13.1584C57.2928 13.0378 57.2191 12.8503 57.2191 12.5959V7.91511ZM58.8262 8.69858H57.2191V3.97764C57.2861 3.95086 57.3865 3.92407 57.5204 3.89729C57.6678 3.85711 57.8218 3.83702 57.9825 3.83702C58.2637 3.83702 58.4713 3.89729 58.6052 4.01782C58.7526 4.12496 58.8262 4.31246 58.8262 4.58032V8.69858Z" fill="black"/>
<path d="M70 7.09145V9.14054H68.3929V7.17181C68.3929 6.42182 68.1786 5.87271 67.75 5.5245C67.3349 5.17629 66.7724 5.00219 66.0625 5.00219C65.5268 5.00219 65.0514 5.06915 64.6362 5.20308C64.221 5.337 63.8661 5.49102 63.5715 5.66513V9.14054H61.9644V5.74548C61.9644 5.46424 62.0179 5.23656 62.1251 5.06245C62.2456 4.87496 62.4465 4.69415 62.7277 4.52005C63.076 4.31916 63.538 4.13166 64.1139 3.95755C64.6898 3.77006 65.3393 3.67631 66.0625 3.67631C67.2813 3.67631 68.2389 3.95755 68.9353 4.52005C69.6451 5.06915 70 5.92628 70 7.09145ZM61.9644 8.03564H63.5715V13.1785C63.5045 13.2052 63.4041 13.232 63.2702 13.2588C63.1362 13.299 62.9889 13.3191 62.8282 13.3191C62.5469 13.3191 62.3327 13.2655 62.1853 13.1584C62.038 13.0378 61.9644 12.8503 61.9644 12.5959V8.03564ZM68.3929 8.03564H70V13.1785C69.933 13.2052 69.8259 13.232 69.6786 13.2588C69.5446 13.299 69.404 13.3191 69.2567 13.3191C68.9621 13.3191 68.7411 13.2655 68.5938 13.1584C68.4598 13.0378 68.3929 12.8503 68.3929 12.5959V8.03564Z" fill="black"/>
</svg>
